<svg xmlns="http://www.w3.org/2000/svg" viewBox="0 0 190.10 64" width="190.10" height="64"><defs><clipPath id="b-santoku"><path d="M 1 43 C 16 43.6 32 42.6 46 38.6 C 50 37.1 53.5 35.6 56.4 33.9 C 57.8 33.1 58.2 31.6 57.2 30.6 C 52 25.2 44 21 31 21 L 1 21 Z"/></clipPath><linearGradient id="gbd-santoku" gradientUnits="userSpaceOnUse" x1="4" y1="34" x2="52" y2="16"><stop offset="0" stop-color="#bfcbd9"/><stop offset="1" stop-color="#e0e7ee"/></linearGradient><linearGradient id="gd-santoku" gradientUnits="userSpaceOnUse" x1="0" y1="35" x2="0" y2="43"><stop offset="0" stop-color="#d4dce6"/><stop offset="1" stop-color="#c0ccd9"/></linearGradient><linearGradient id="gbl-santoku" gradientUnits="userSpaceOnUse" x1="0" y1="20" x2="0" y2="44"><stop offset="0" stop-color="#ffffff"/><stop offset="1" stop-color="#eceff2"/></linearGradient><linearGradient id="gt-santoku" gradientUnits="userSpaceOnUse" x1="0" y1="0" x2="0" y2="64"><stop offset="0" stop-color="#243449"/><stop offset="1" stop-color="#161f2e"/></linearGradient><clipPath id="sq-santoku"><rect width="64" height="64" rx="14"/></clipPath><clipPath id="sq-santoku"><rect width="64" height="64" rx="14"/></clipPath><clipPath id="bn-santoku"><rect width="190.10" height="64" rx="14"/></clipPath><clipPath id="kn-santoku"><rect width="64" height="64"/></clipPath></defs><g clip-path="url(#bn-santoku)"><rect width="190.10" height="64" fill="url(#gt-santoku)"/><g clip-path="url(#kn-santoku)"><g transform="translate(-6 2) rotate(-32 32 32) translate(32 32) scale(1.32) translate(-32 -32)"><path fill="url(#gbl-santoku)" d="M 1 43 C 16 43.6 32 42.6 46 38.6 C 50 37.1 53.5 35.6 56.4 33.9 C 57.8 33.1 58.2 31.6 57.2 30.6 C 52 25.2 44 21 31 21 L 1 21 Z"/><g clip-path="url(#b-santoku)"><path fill="url(#gbd-santoku)" d="M 0 31 C 18 31.6 36 28.5 50 23.5 C 55 21.4 60 19 66 16 L 66 12 L 0 12 Z"/></g><g fill="url(#gd-santoku)"><path d="M 9.48 42.01 Q 12.08 42.47 14.65 41.92 C 14.48 36.56 9.47 36.65 9.48 42.01 Z M 16.23 41.86 Q 18.84 42.22 21.40 41.57 C 21.01 36.23 16.01 36.51 16.23 41.86 Z M 22.97 41.45 Q 25.58 41.69 28.09 40.93 C 27.46 35.61 22.52 36.11 22.97 41.45 Z M 29.69 40.73 Q 32.31 40.84 34.78 39.96 C 33.86 34.68 28.99 35.42 29.69 40.73 Z M 36.34 39.68 Q 38.94 39.64 41.34 38.63 C 40.10 33.41 35.35 34.41 36.34 39.68 Z M 42.89 38.25 Q 45.44 37.96 47.71 36.71 C 45.74 31.72 41.58 33.05 42.89 38.25 Z"/></g></g></g><path fill="#93a7c0" d="M 86.48 22.90 Q 86.48 22.38 86.12 22.10 Q 85.76 21.82 84.81 21.54 Q 83.87 21.25 83.31 20.90 Q 82.24 20.23 82.24 19.15 Q 82.24 18.21 83.01 17.59 Q 83.78 16.98 85.01 16.98 Q 85.83 16.98 86.47 17.28 Q 87.11 17.58 87.47 18.14 Q 87.84 18.70 87.84 19.37 L 86.48 19.37 Q 86.48 18.76 86.10 18.41 Q 85.72 18.07 85.00 18.07 Q 84.34 18.07 83.97 18.35 Q 83.60 18.64 83.60 19.15 Q 83.60 19.58 84.00 19.86 Q 84.40 20.15 85.31 20.42 Q 86.22 20.69 86.77 21.04 Q 87.33 21.39 87.59 21.84 Q 87.84 22.28 87.84 22.89 Q 87.84 23.86 87.09 24.44 Q 86.35 25.02 85.06 25.02 Q 84.21 25.02 83.50 24.70 Q 82.79 24.39 82.39 23.84 Q 82.00 23.28 82.00 22.55 L 83.36 22.55 Q 83.36 23.21 83.80 23.58 Q 84.24 23.94 85.06 23.94 Q 85.77 23.94 86.13 23.66 Q 86.48 23.37 86.48 22.90 ZM 94.95 23.09 L 91.92 23.09 L 91.29 24.91 L 89.88 24.91 L 92.83 17.09 L 94.05 17.09 L 97.01 24.91 L 95.59 24.91 Z M 92.31 21.99 L 94.57 21.99 L 93.44 18.75 ZM 105.64 24.91 L 104.28 24.91 L 100.80 19.36 L 100.80 24.91 L 99.44 24.91 L 99.44 17.09 L 100.80 17.09 L 104.29 22.66 L 104.29 17.09 L 105.64 17.09 ZM 114.44 18.19 L 112.00 18.19 L 112.00 24.91 L 110.65 24.91 L 110.65 18.19 L 108.23 18.19 L 108.23 17.09 L 114.44 17.09 ZM 123.24 21.20 Q 123.24 22.35 122.85 23.22 Q 122.45 24.09 121.71 24.55 Q 120.97 25.02 120.01 25.02 Q 119.06 25.02 118.32 24.55 Q 117.57 24.09 117.17 23.23 Q 116.76 22.37 116.76 21.25 L 116.76 20.81 Q 116.76 19.66 117.16 18.79 Q 117.57 17.91 118.31 17.45 Q 119.04 16.98 120.00 16.98 Q 120.96 16.98 121.69 17.44 Q 122.43 17.90 122.84 18.76 Q 123.24 19.62 123.24 20.77 Z M 121.89 20.80 Q 121.89 19.50 121.39 18.80 Q 120.90 18.11 120.00 18.11 Q 119.12 18.11 118.62 18.80 Q 118.13 19.49 118.11 20.75 L 118.11 21.20 Q 118.11 22.49 118.62 23.20 Q 119.12 23.90 120.01 23.90 Q 120.91 23.90 121.40 23.21 Q 121.89 22.53 121.89 21.20 ZM 128.38 21.53 L 127.50 22.47 L 127.50 24.91 L 126.14 24.91 L 126.14 17.09 L 127.50 17.09 L 127.50 20.76 L 128.25 19.83 L 130.54 17.09 L 132.18 17.09 L 129.27 20.55 L 132.35 24.91 L 130.74 24.91 ZM 140.33 17.09 L 140.33 22.32 Q 140.33 23.56 139.53 24.29 Q 138.74 25.02 137.41 25.02 Q 136.07 25.02 135.28 24.30 Q 134.49 23.58 134.49 22.31 L 134.49 17.09 L 135.84 17.09 L 135.84 22.32 Q 135.84 23.11 136.24 23.52 Q 136.64 23.93 137.41 23.93 Q 138.98 23.93 138.98 22.28 L 138.98 17.09 Z"/><path fill="#ffffff" d="M 89.37 45.71 Q 89.37 44.98 88.77 44.60 Q 88.17 44.22 86.77 43.93 Q 85.38 43.63 84.45 43.18 Q 82.40 42.20 82.40 40.32 Q 82.40 38.75 83.73 37.69 Q 85.05 36.64 87.10 36.64 Q 89.28 36.64 90.62 37.71 Q 91.96 38.79 91.96 40.51 L 89.23 40.51 Q 89.23 39.73 88.65 39.20 Q 88.06 38.68 87.10 38.68 Q 86.20 38.68 85.63 39.10 Q 85.07 39.51 85.07 40.21 Q 85.07 40.84 85.59 41.19 Q 86.12 41.53 87.73 41.89 Q 89.33 42.24 90.25 42.73 Q 91.16 43.22 91.61 43.90 Q 92.05 44.59 92.05 45.56 Q 92.05 47.20 90.69 48.22 Q 89.33 49.24 87.13 49.24 Q 85.64 49.24 84.47 48.70 Q 83.30 48.16 82.65 47.22 Q 82.00 46.27 82.00 45.18 L 84.65 45.18 Q 84.71 46.15 85.38 46.67 Q 86.05 47.19 87.17 47.19 Q 88.24 47.19 88.81 46.78 Q 89.37 46.37 89.37 45.71 ZM 101.80 49.01 Q 101.62 48.66 101.49 47.88 Q 100.18 49.24 98.30 49.24 Q 96.47 49.24 95.31 48.19 Q 94.15 47.15 94.15 45.61 Q 94.15 43.67 95.60 42.63 Q 97.04 41.59 99.72 41.59 L 101.40 41.59 L 101.40 40.79 Q 101.40 39.85 100.87 39.28 Q 100.34 38.71 99.26 38.71 Q 98.33 38.71 97.74 39.18 Q 97.14 39.65 97.14 40.37 L 94.41 40.37 Q 94.41 39.37 95.07 38.50 Q 95.74 37.62 96.88 37.13 Q 98.02 36.64 99.42 36.64 Q 101.55 36.64 102.82 37.71 Q 104.09 38.78 104.13 40.72 L 104.13 46.21 Q 104.13 47.84 104.59 48.82 L 104.59 49.01 Z M 98.80 47.05 Q 99.61 47.05 100.33 46.65 Q 101.04 46.26 101.40 45.60 L 101.40 43.31 L 99.93 43.31 Q 98.41 43.31 97.65 43.84 Q 96.88 44.36 96.88 45.33 Q 96.88 46.12 97.41 46.58 Q 97.93 47.05 98.80 47.05 ZM 109.63 36.86 L 109.71 38.27 Q 111.06 36.64 113.25 36.64 Q 117.04 36.64 117.11 40.98 L 117.11 49.01 L 114.38 49.01 L 114.38 41.14 Q 114.38 39.98 113.88 39.43 Q 113.38 38.87 112.25 38.87 Q 110.60 38.87 109.79 40.37 L 109.79 49.01 L 107.06 49.01 L 107.06 36.86 ZM 123.43 33.91 L 123.43 36.86 L 125.57 36.86 L 125.57 38.88 L 123.43 38.88 L 123.43 45.67 Q 123.43 46.36 123.70 46.67 Q 123.98 46.98 124.68 46.98 Q 125.16 46.98 125.64 46.87 L 125.64 48.98 Q 124.71 49.24 123.84 49.24 Q 120.70 49.24 120.70 45.77 L 120.70 38.88 L 118.70 38.88 L 118.70 36.86 L 120.70 36.86 L 120.70 33.91 ZM 127.26 42.82 Q 127.26 41.04 127.97 39.61 Q 128.67 38.18 129.95 37.41 Q 131.23 36.64 132.90 36.64 Q 135.36 36.64 136.89 38.22 Q 138.42 39.80 138.54 42.42 L 138.56 43.06 Q 138.56 44.86 137.87 46.27 Q 137.17 47.69 135.89 48.46 Q 134.60 49.24 132.92 49.24 Q 130.35 49.24 128.80 47.52 Q 127.26 45.81 127.26 42.96 Z M 129.99 43.06 Q 129.99 44.94 130.76 46.00 Q 131.54 47.06 132.92 47.06 Q 134.30 47.06 135.07 45.98 Q 135.84 44.90 135.84 42.82 Q 135.84 40.98 135.05 39.90 Q 134.25 38.83 132.90 38.83 Q 131.56 38.83 130.77 39.89 Q 129.99 40.95 129.99 43.06 ZM 144.93 43.80 L 143.71 45.05 L 143.71 49.01 L 140.98 49.01 L 140.98 31.76 L 143.71 31.76 L 143.71 41.71 L 144.57 40.65 L 147.93 36.86 L 151.20 36.86 L 146.69 41.93 L 151.69 49.01 L 148.53 49.01 ZM 160.46 47.82 Q 159.26 49.24 157.05 49.24 Q 155.07 49.24 154.05 48.08 Q 153.04 46.92 153.04 44.73 L 153.04 36.86 L 155.77 36.86 L 155.77 44.70 Q 155.77 47.01 157.69 47.01 Q 159.67 47.01 160.37 45.59 L 160.37 36.86 L 163.10 36.86 L 163.10 49.01 L 160.53 49.01 Z"/></g></svg>