<svg xmlns="http://www.w3.org/2000/svg" viewBox="0 0 200.26 64" width="200.26" height="64"><defs><clipPath id="b-template"><path d="M 1 43 C 16 43.6 32 42.6 46 38.6 C 50 37.1 53.5 35.6 56.4 33.9 C 57.8 33.1 58.2 31.6 57.2 30.6 C 52 25.2 44 21 31 21 L 1 21 Z"/></clipPath><linearGradient id="gbd-template" gradientUnits="userSpaceOnUse" x1="4" y1="34" x2="52" y2="16"><stop offset="0" stop-color="#bfcbd9"/><stop offset="1" stop-color="#e0e7ee"/></linearGradient><linearGradient id="gd-template" gradientUnits="userSpaceOnUse" x1="0" y1="35" x2="0" y2="43"><stop offset="0" stop-color="#d4dce6"/><stop offset="1" stop-color="#c0ccd9"/></linearGradient><linearGradient id="gbl-template" gradientUnits="userSpaceOnUse" x1="0" y1="20" x2="0" y2="44"><stop offset="0" stop-color="#ffffff"/><stop offset="1" stop-color="#eceff2"/></linearGradient><linearGradient id="gt-template" gradientUnits="userSpaceOnUse" x1="0" y1="0" x2="0" y2="64"><stop offset="0" stop-color="#243449"/><stop offset="1" stop-color="#161f2e"/></linearGradient><clipPath id="sq-template"><rect width="64" height="64" rx="14"/></clipPath><clipPath id="sq-template"><rect width="64" height="64" rx="14"/></clipPath><clipPath id="bn-template"><rect width="200.26" height="64" rx="14"/></clipPath><clipPath id="kn-template"><rect width="64" height="64"/></clipPath></defs><g clip-path="url(#bn-template)"><rect width="200.26" height="64" fill="url(#gt-template)"/><g clip-path="url(#kn-template)"><g transform="translate(-6 2) rotate(-32 32 32) translate(32 32) scale(1.32) translate(-32 -32)"><path fill="url(#gbl-template)" d="M 1 43 C 16 43.6 32 42.6 46 38.6 C 50 37.1 53.5 35.6 56.4 33.9 C 57.8 33.1 58.2 31.6 57.2 30.6 C 52 25.2 44 21 31 21 L 1 21 Z"/><g clip-path="url(#b-template)"><path fill="url(#gbd-template)" d="M 0 31 C 18 31.6 36 28.5 50 23.5 C 55 21.4 60 19 66 16 L 66 12 L 0 12 Z"/></g><g fill="url(#gd-template)"><path d="M 9.48 42.01 Q 12.08 42.47 14.65 41.92 C 14.48 36.56 9.47 36.65 9.48 42.01 Z M 16.23 41.86 Q 18.84 42.22 21.40 41.57 C 21.01 36.23 16.01 36.51 16.23 41.86 Z M 22.97 41.45 Q 25.58 41.69 28.09 40.93 C 27.46 35.61 22.52 36.11 22.97 41.45 Z M 29.69 40.73 Q 32.31 40.84 34.78 39.96 C 33.86 34.68 28.99 35.42 29.69 40.73 Z M 36.34 39.68 Q 38.94 39.64 41.34 38.63 C 40.10 33.41 35.35 34.41 36.34 39.68 Z M 42.89 38.25 Q 45.44 37.96 47.71 36.71 C 45.74 31.72 41.58 33.05 42.89 38.25 Z"/></g></g></g><path fill="#93a7c0" d="M 86.48 22.90 Q 86.48 22.38 86.12 22.10 Q 85.76 21.82 84.81 21.54 Q 83.87 21.25 83.31 20.90 Q 82.24 20.23 82.24 19.15 Q 82.24 18.21 83.01 17.59 Q 83.78 16.98 85.01 16.98 Q 85.83 16.98 86.47 17.28 Q 87.11 17.58 87.47 18.14 Q 87.84 18.70 87.84 19.37 L 86.48 19.37 Q 86.48 18.76 86.10 18.41 Q 85.72 18.07 85.00 18.07 Q 84.34 18.07 83.97 18.35 Q 83.60 18.64 83.60 19.15 Q 83.60 19.58 84.00 19.86 Q 84.40 20.15 85.31 20.42 Q 86.22 20.69 86.77 21.04 Q 87.33 21.39 87.59 21.84 Q 87.84 22.28 87.84 22.89 Q 87.84 23.86 87.09 24.44 Q 86.35 25.02 85.06 25.02 Q 84.21 25.02 83.50 24.70 Q 82.79 24.39 82.39 23.84 Q 82.00 23.28 82.00 22.55 L 83.36 22.55 Q 83.36 23.21 83.80 23.58 Q 84.24 23.94 85.06 23.94 Q 85.77 23.94 86.13 23.66 Q 86.48 23.37 86.48 22.90 ZM 94.95 23.09 L 91.92 23.09 L 91.29 24.91 L 89.88 24.91 L 92.83 17.09 L 94.05 17.09 L 97.01 24.91 L 95.59 24.91 Z M 92.31 21.99 L 94.57 21.99 L 93.44 18.75 ZM 105.64 24.91 L 104.28 24.91 L 100.80 19.36 L 100.80 24.91 L 99.44 24.91 L 99.44 17.09 L 100.80 17.09 L 104.29 22.66 L 104.29 17.09 L 105.64 17.09 ZM 114.44 18.19 L 112.00 18.19 L 112.00 24.91 L 110.65 24.91 L 110.65 18.19 L 108.23 18.19 L 108.23 17.09 L 114.44 17.09 ZM 123.24 21.20 Q 123.24 22.35 122.85 23.22 Q 122.45 24.09 121.71 24.55 Q 120.97 25.02 120.01 25.02 Q 119.06 25.02 118.32 24.55 Q 117.57 24.09 117.17 23.23 Q 116.76 22.37 116.76 21.25 L 116.76 20.81 Q 116.76 19.66 117.16 18.79 Q 117.57 17.91 118.31 17.45 Q 119.04 16.98 120.00 16.98 Q 120.96 16.98 121.69 17.44 Q 122.43 17.90 122.84 18.76 Q 123.24 19.62 123.24 20.77 Z M 121.89 20.80 Q 121.89 19.50 121.39 18.80 Q 120.90 18.11 120.00 18.11 Q 119.12 18.11 118.62 18.80 Q 118.13 19.49 118.11 20.75 L 118.11 21.20 Q 118.11 22.49 118.62 23.20 Q 119.12 23.90 120.01 23.90 Q 120.91 23.90 121.40 23.21 Q 121.89 22.53 121.89 21.20 ZM 128.38 21.53 L 127.50 22.47 L 127.50 24.91 L 126.14 24.91 L 126.14 17.09 L 127.50 17.09 L 127.50 20.76 L 128.25 19.83 L 130.54 17.09 L 132.18 17.09 L 129.27 20.55 L 132.35 24.91 L 130.74 24.91 ZM 140.33 17.09 L 140.33 22.32 Q 140.33 23.56 139.53 24.29 Q 138.74 25.02 137.41 25.02 Q 136.07 25.02 135.28 24.30 Q 134.49 23.58 134.49 22.31 L 134.49 17.09 L 135.84 17.09 L 135.84 22.32 Q 135.84 23.11 136.24 23.52 Q 136.64 23.93 137.41 23.93 Q 138.98 23.93 138.98 22.28 L 138.98 17.09 Z"/><path fill="#ffffff" d="M 86.73 31.68 L 86.73 34.64 L 88.87 34.64 L 88.87 36.66 L 86.73 36.66 L 86.73 43.44 Q 86.73 44.14 87.00 44.45 Q 87.28 44.76 87.99 44.76 Q 88.46 44.76 88.94 44.64 L 88.94 46.76 Q 88.01 47.01 87.14 47.01 Q 84.00 47.01 84.00 43.54 L 84.00 36.66 L 82.00 36.66 L 82.00 34.64 L 84.00 34.64 L 84.00 31.68 ZM 96.42 47.01 Q 93.83 47.01 92.22 45.38 Q 90.61 43.75 90.61 41.03 L 90.61 40.69 Q 90.61 38.87 91.31 37.44 Q 92.01 36.01 93.28 35.21 Q 94.55 34.41 96.11 34.41 Q 98.59 34.41 99.94 36.00 Q 101.30 37.58 101.30 40.48 L 101.30 41.58 L 93.36 41.58 Q 93.48 43.08 94.36 43.96 Q 95.24 44.83 96.58 44.83 Q 98.46 44.83 99.63 43.32 L 101.11 44.72 Q 100.38 45.81 99.16 46.41 Q 97.94 47.01 96.42 47.01 Z M 96.10 36.60 Q 94.97 36.60 94.28 37.39 Q 93.59 38.18 93.40 39.58 L 98.60 39.58 L 98.60 39.38 Q 98.51 38.01 97.87 37.30 Q 97.23 36.60 96.10 36.60 ZM 106.09 34.64 L 106.17 35.91 Q 107.45 34.41 109.68 34.41 Q 112.11 34.41 113.01 36.28 Q 114.34 34.41 116.74 34.41 Q 118.75 34.41 119.73 35.52 Q 120.72 36.64 120.74 38.80 L 120.74 46.79 L 118.01 46.79 L 118.01 38.88 Q 118.01 37.73 117.50 37.19 Q 117.00 36.65 115.83 36.65 Q 114.90 36.65 114.31 37.15 Q 113.72 37.65 113.48 38.46 L 113.50 46.79 L 110.77 46.79 L 110.77 38.79 Q 110.71 36.65 108.58 36.65 Q 106.94 36.65 106.25 37.98 L 106.25 46.79 L 103.52 46.79 L 103.52 34.64 ZM 134.30 40.84 Q 134.30 43.66 133.02 45.33 Q 131.74 47.01 129.58 47.01 Q 127.58 47.01 126.38 45.70 L 126.38 51.46 L 123.65 51.46 L 123.65 34.64 L 126.17 34.64 L 126.28 35.87 Q 127.48 34.41 129.55 34.41 Q 131.77 34.41 133.03 36.07 Q 134.30 37.73 134.30 40.67 Z M 131.58 40.60 Q 131.58 38.78 130.86 37.71 Q 130.13 36.65 128.78 36.65 Q 127.11 36.65 126.38 38.03 L 126.38 43.42 Q 127.12 44.83 128.81 44.83 Q 130.11 44.83 130.84 43.78 Q 131.58 42.73 131.58 40.60 ZM 139.62 46.79 L 136.89 46.79 L 136.89 29.54 L 139.62 29.54 ZM 149.97 46.79 Q 149.79 46.44 149.65 45.65 Q 148.35 47.01 146.47 47.01 Q 144.63 47.01 143.48 45.97 Q 142.32 44.92 142.32 43.39 Q 142.32 41.44 143.76 40.40 Q 145.21 39.37 147.89 39.37 L 149.56 39.37 L 149.56 38.57 Q 149.56 37.62 149.04 37.06 Q 148.51 36.49 147.43 36.49 Q 146.50 36.49 145.90 36.96 Q 145.31 37.42 145.31 38.14 L 142.58 38.14 Q 142.58 37.14 143.24 36.27 Q 143.90 35.40 145.04 34.91 Q 146.18 34.41 147.59 34.41 Q 149.72 34.41 150.99 35.49 Q 152.26 36.56 152.29 38.50 L 152.29 43.98 Q 152.29 45.62 152.75 46.60 L 152.75 46.79 Z M 146.97 44.82 Q 147.78 44.82 148.49 44.43 Q 149.21 44.04 149.56 43.38 L 149.56 41.08 L 148.09 41.08 Q 146.58 41.08 145.81 41.61 Q 145.05 42.14 145.05 43.11 Q 145.05 43.89 145.57 44.36 Q 146.09 44.82 146.97 44.82 ZM 158.69 31.68 L 158.69 34.64 L 160.83 34.64 L 160.83 36.66 L 158.69 36.66 L 158.69 43.44 Q 158.69 44.14 158.96 44.45 Q 159.24 44.76 159.94 44.76 Q 160.42 44.76 160.90 44.64 L 160.90 46.76 Q 159.97 47.01 159.10 47.01 Q 155.96 47.01 155.96 43.54 L 155.96 36.66 L 153.96 36.66 L 153.96 34.64 L 155.96 34.64 L 155.96 31.68 ZM 168.38 47.01 Q 165.79 47.01 164.18 45.38 Q 162.56 43.75 162.56 41.03 L 162.56 40.69 Q 162.56 38.87 163.27 37.44 Q 163.97 36.01 165.24 35.21 Q 166.51 34.41 168.07 34.41 Q 170.55 34.41 171.90 36.00 Q 173.26 37.58 173.26 40.48 L 173.26 41.58 L 165.32 41.58 Q 165.44 43.08 166.32 43.96 Q 167.20 44.83 168.54 44.83 Q 170.41 44.83 171.59 43.32 L 173.06 44.72 Q 172.33 45.81 171.12 46.41 Q 169.90 47.01 168.38 47.01 Z M 168.06 36.60 Q 166.93 36.60 166.24 37.39 Q 165.55 38.18 165.36 39.58 L 170.56 39.58 L 170.56 39.38 Q 170.47 38.01 169.83 37.30 Q 169.19 36.60 168.06 36.60 Z"/></g></svg>